<?xml version="1.0" encoding="iso-8859-1"?>
<!-- Uploaded to: SVG Repo, www.svgrepo.com, Generator: SVG Repo Mixer Tools -->
<svg height="800px" width="800px" version="1.1" id="Layer_1" xmlns="http://www.w3.org/2000/svg" xmlns:xlink="http://www.w3.org/1999/xlink" 
	 viewBox="0 0 512 512" xml:space="preserve">
<g>
	<path style="fill:#80086E;" d="M337.933,74.315l-80.282,80.282v139.849l80.896-80.896V92.457c0-0.978-0.034-1.957-0.07-2.98
		L337.933,74.315z"/>
	<path style="fill:#80086E;" d="M173.452,349.074c0,42.217,31.632,77.49,73.576,82.047l7.32,0.795v-60.132l-80.896-80.896
		L173.452,349.074L173.452,349.074z"/>
</g>
<path style="fill:#FFADD4;" d="M334.776,67.787c-9.822-31.317-37.222-53.838-69.805-57.376l-7.32-0.795v140.312l78.322-78.323
	L334.776,67.787z"/>
<path style="fill:#FFD3FF;" d="M204.545,173.469c0,0.285-0.069,0.69-0.389,1.066l-6.093,4.368l21.403,21.133l4.35-5.785
	c0.382-0.34,0.802-0.414,1.094-0.414c0.309,0,0.76,0.083,1.161,0.484l28.278,28.279V9.616l-7.32,0.795
	c-41.945,4.556-73.576,39.829-73.576,82.047v49.247l30.608,30.597C204.46,172.7,204.545,173.156,204.545,173.469z"/>
<g>
	<path style="fill:#C392BF;" d="M257.652,431.915l7.32-0.795c41.945-4.556,73.576-39.829,73.576-82.047V218.217l-80.896,80.896
		V431.915z"/>
	<path style="fill:#C392BF;" d="M223.742,196.661c-0.616-0.616-0.647-1.604-0.074-2.249l-19.73-19.683
		c-0.303,0.264-0.657,0.397-1.054,0.397c-0.252,0-0.74-0.064-1.164-0.487l-28.268-28.268V286.22l80.896,80.896V227.267
		L223.742,196.661z"/>
</g>
<path d="M208.279,179.707c-1.553,1.354-3.468,2.026-5.395,2.026c-2.114,0-4.228-0.815-5.836-2.422l-16.99-16.99v121.162
	l67.683,67.683v-52.73c0,0,0,0,0-0.011v-68.421l-28.672-28.672c-3.105-3.105-3.226-8.06-0.341-11.308
	c0.099-0.132,0.22-0.253,0.341-0.374c3.226-3.226,8.456-3.226,11.671,0l17.001,17.001v-52.73v-0.011V16.979
	c-38.009,4.129-67.683,36.402-67.683,75.479v46.509l28.672,28.661c3.226,3.226,3.226,8.456,0,11.682
	C208.588,179.453,208.434,179.596,208.279,179.707z M348.457,214.236v134.838c0,48.194-37.073,87.877-84.199,92.072v62.596
	c0,4.558-3.7,8.258-8.258,8.258s-8.258-3.7-8.258-8.258v-62.596c-47.126-4.195-84.199-43.878-84.199-92.072V92.457
	C163.543,41.478,205.02,0,256,0c43.14,0,79.465,29.707,89.628,69.731c0.11,0.363,0.187,0.727,0.253,1.101
	c1.674,6.948,2.577,14.182,2.577,21.625v121.768C348.457,214.236,348.457,214.236,348.457,214.236z M331.941,349.074V234.166
	l-67.683,67.683v69.247c0,0.011,0,0.011,0,0.011v53.446C302.267,420.424,331.941,388.151,331.941,349.074z M331.941,210.812V92.457
	c0-0.914-0.033-1.828-0.066-2.742l-67.617,67.617v69.247v0.011v51.905L331.941,210.812z M264.258,133.979l64.215-64.215
	c-8.875-28.298-33.891-49.493-64.215-52.786V133.979z M247.742,424.553V374.52l-67.683-67.683v42.237
	C180.059,388.151,209.733,420.424,247.742,424.553z"/>
</svg>